<?xml version="1.0" encoding="UTF-8"?> <svg xmlns="http://www.w3.org/2000/svg" width="162" height="54" viewBox="0 0 162 54" fill="none"><rect x="2.41772" y="6.57153" width="157.667" height="46.5593" rx="10" transform="rotate(-1.5 2.41772 6.57153)" fill="#CC6D28"></rect><rect x="0.417725" y="4.57153" width="157.667" height="46.5593" rx="10" transform="rotate(-1.5 0.417725 4.57153)" fill="#FDC049"></rect><path d="M54.7 19.58V9.5H60.769V11.187H56.387V13.7H59.929V15.38H56.387V19.58H54.7Z" fill="#614B12"></path><path fill-rule="evenodd" clip-rule="evenodd" d="M65.162 19.79C64.406 19.79 63.7457 19.6197 63.181 19.279C62.6164 18.9383 62.1777 18.4693 61.865 17.872C61.557 17.27 61.403 16.5793 61.403 15.8C61.403 15.0067 61.5617 14.3113 61.879 13.714C62.1964 13.1167 62.6374 12.65 63.202 12.314C63.7667 11.978 64.42 11.81 65.162 11.81C65.9227 11.81 66.5854 11.9803 67.15 12.321C67.7147 12.6617 68.1534 13.133 68.466 13.735C68.7787 14.3323 68.935 15.0207 68.935 15.8C68.935 16.584 68.7764 17.277 68.459 17.879C68.1464 18.4763 67.7077 18.9453 67.143 19.286C66.5784 19.622 65.918 19.79 65.162 19.79ZM65.162 18.208C65.834 18.208 66.3334 17.984 66.66 17.536C66.9867 17.088 67.15 16.5093 67.15 15.8C67.15 15.0673 66.9844 14.484 66.653 14.05C66.3217 13.6113 65.8247 13.392 65.162 13.392C64.7094 13.392 64.336 13.4947 64.042 13.7C63.7527 13.9007 63.538 14.183 63.398 14.547C63.258 14.9063 63.188 15.324 63.188 15.8C63.188 16.5327 63.3537 17.1183 63.685 17.557C64.021 17.991 64.5134 18.208 65.162 18.208Z" fill="#614B12"></path><path d="M71.9683 12.02H70.4773V19.58H72.1713V15.737C72.1713 15.4477 72.2063 15.1793 72.2763 14.932C72.3463 14.68 72.4537 14.456 72.5983 14.26C72.7477 14.064 72.939 13.903 73.1723 13.777C73.4057 13.637 73.667 13.5553 73.9563 13.532C74.2503 13.5087 74.5093 13.5297 74.7333 13.595V12.02C74.5093 11.9827 74.2783 11.9733 74.0403 11.992C73.8023 12.006 73.569 12.0503 73.3403 12.125C73.1163 12.195 72.911 12.293 72.7243 12.419C72.505 12.5543 72.316 12.727 72.1573 12.937C72.0882 13.0291 72.0252 13.126 71.9683 13.2275V12.02Z" fill="#614B12"></path><path fill-rule="evenodd" clip-rule="evenodd" d="M82.2109 19.79C81.4549 19.79 80.7945 19.6197 80.2299 19.279C79.6652 18.9383 79.2265 18.4693 78.9139 17.872C78.6059 17.27 78.4519 16.5793 78.4519 15.8C78.4519 15.0067 78.6105 14.3113 78.9279 13.714C79.2452 13.1167 79.6862 12.65 80.2509 12.314C80.8155 11.978 81.4689 11.81 82.2109 11.81C82.9715 11.81 83.6342 11.9803 84.1989 12.321C84.7635 12.6617 85.2022 13.133 85.5149 13.735C85.8275 14.3323 85.9839 15.0207 85.9839 15.8C85.9839 16.584 85.8252 17.277 85.5079 17.879C85.1952 18.4763 84.7565 18.9453 84.1919 19.286C83.6272 19.622 82.9669 19.79 82.2109 19.79ZM82.2109 18.208C82.8829 18.208 83.3822 17.984 83.7089 17.536C84.0355 17.088 84.1989 16.5093 84.1989 15.8C84.1989 15.0673 84.0332 14.484 83.7019 14.05C83.3705 13.6113 82.8735 13.392 82.2109 13.392C81.7582 13.392 81.3849 13.4947 81.0909 13.7C80.8015 13.9007 80.5869 14.183 80.4469 14.547C80.3069 14.9063 80.2369 15.324 80.2369 15.8C80.2369 16.5327 80.4025 17.1183 80.7339 17.557C81.0699 17.991 81.5622 18.208 82.2109 18.208Z" fill="#614B12"></path><path d="M89.0172 12.02H87.5262V19.58H89.2202V15.737C89.2202 15.4477 89.2552 15.1793 89.3252 14.932C89.3952 14.68 89.5025 14.456 89.6472 14.26C89.7965 14.064 89.9878 13.903 90.2212 13.777C90.4545 13.637 90.7158 13.5553 91.0052 13.532C91.2992 13.5087 91.5582 13.5297 91.7822 13.595V12.02C91.5582 11.9827 91.3272 11.9733 91.0892 11.992C90.8512 12.006 90.6178 12.0503 90.3892 12.125C90.1652 12.195 89.9598 12.293 89.7732 12.419C89.5538 12.5543 89.3648 12.727 89.2062 12.937C89.1371 13.0291 89.0741 13.126 89.0172 13.2275V12.02Z" fill="#614B12"></path><path fill-rule="evenodd" clip-rule="evenodd" d="M96.0123 19.79C95.3169 19.79 94.7103 19.615 94.1922 19.265C93.6742 18.915 93.2729 18.439 92.9883 17.837C92.7036 17.235 92.5612 16.556 92.5612 15.8C92.5612 15.0347 92.7036 14.3533 92.9883 13.756C93.2776 13.154 93.6859 12.6803 94.2132 12.335C94.7406 11.985 95.3613 11.81 96.0752 11.81C96.7939 11.81 97.3959 11.985 97.8812 12.335C97.9072 12.3533 97.9329 12.372 97.9583 12.3911V9.5H99.6593V19.58H98.1683V19.0253C98.0735 19.1109 97.9731 19.1908 97.8672 19.265C97.3679 19.615 96.7496 19.79 96.0123 19.79ZM97.9723 17.095C98.1029 16.7217 98.1683 16.29 98.1683 15.8C98.1683 15.3053 98.1029 14.8737 97.9723 14.505C97.8463 14.1317 97.6479 13.8423 97.3773 13.637C97.1066 13.427 96.7566 13.322 96.3273 13.322C95.8746 13.322 95.5013 13.434 95.2072 13.658C94.9132 13.8773 94.6963 14.176 94.5563 14.554C94.4163 14.9273 94.3463 15.3427 94.3463 15.8C94.3463 16.262 94.4139 16.682 94.5493 17.06C94.6893 17.4333 94.9016 17.7297 95.1862 17.949C95.4709 18.1683 95.8326 18.278 96.2713 18.278C96.7239 18.278 97.0879 18.1753 97.3633 17.97C97.6432 17.76 97.8463 17.4683 97.9723 17.095Z" fill="#614B12"></path><path fill-rule="evenodd" clip-rule="evenodd" d="M103.043 19.293C103.622 19.6243 104.294 19.79 105.059 19.79C105.787 19.79 106.452 19.601 107.054 19.223C107.661 18.845 108.109 18.3153 108.398 17.634L106.732 17.13C106.569 17.48 106.335 17.7483 106.032 17.935C105.733 18.117 105.376 18.208 104.961 18.208C104.317 18.208 103.827 17.998 103.491 17.578C103.227 17.2482 103.067 16.8118 103.01 16.269H108.482C108.547 15.3637 108.447 14.5773 108.181 13.91C107.915 13.2427 107.507 12.727 106.956 12.363C106.41 11.9943 105.745 11.81 104.961 11.81C104.219 11.81 103.566 11.978 103.001 12.314C102.436 12.65 101.995 13.1237 101.678 13.735C101.361 14.3417 101.202 15.058 101.202 15.884C101.202 16.6493 101.363 17.326 101.685 17.914C102.012 18.502 102.464 18.9617 103.043 19.293ZM106.77 14.995C106.709 14.5028 106.577 14.1225 106.375 13.854C106.09 13.476 105.642 13.287 105.031 13.287C104.34 13.287 103.827 13.5017 103.491 13.931C103.275 14.2038 103.129 14.5585 103.051 14.995H106.77Z" fill="#614B12"></path><path d="M110.044 12.02H111.535V13.2275C111.592 13.126 111.655 13.0291 111.724 12.937C111.882 12.727 112.071 12.5543 112.291 12.419C112.477 12.293 112.683 12.195 112.907 12.125C113.135 12.0503 113.369 12.006 113.607 11.992C113.845 11.9733 114.076 11.9827 114.3 12.02V13.595C114.076 13.5297 113.817 13.5087 113.523 13.532C113.233 13.5553 112.972 13.637 112.739 13.777C112.505 13.903 112.314 14.064 112.165 14.26C112.02 14.456 111.913 14.68 111.843 14.932C111.773 15.1793 111.738 15.4477 111.738 15.737V19.58H110.044V12.02Z" fill="#614B12"></path><path d="M116.006 19.16C116.589 19.58 117.348 19.79 118.281 19.79C119.256 19.79 120.019 19.573 120.57 19.139C121.125 18.705 121.403 18.1077 121.403 17.347C121.403 16.955 121.321 16.6213 121.158 16.346C120.999 16.0707 120.738 15.835 120.374 15.639C120.015 15.4383 119.534 15.261 118.932 15.107C118.344 14.9577 117.901 14.8317 117.602 14.729C117.308 14.6263 117.112 14.5237 117.014 14.421C116.916 14.3183 116.867 14.1947 116.867 14.05C116.867 13.7933 116.988 13.595 117.231 13.455C117.474 13.3103 117.793 13.2497 118.19 13.273C118.605 13.2963 118.937 13.4013 119.184 13.588C119.436 13.7747 119.583 14.029 119.625 14.351L121.347 14.043C121.282 13.5903 121.109 13.196 120.829 12.86C120.549 12.524 120.18 12.265 119.723 12.083C119.27 11.901 118.75 11.81 118.162 11.81C117.56 11.81 117.037 11.9057 116.594 12.097C116.151 12.2837 115.805 12.552 115.558 12.902C115.311 13.252 115.187 13.6627 115.187 14.134C115.187 14.512 115.269 14.834 115.432 15.1C115.595 15.366 115.864 15.597 116.237 15.793C116.61 15.9843 117.114 16.164 117.749 16.332C118.318 16.4813 118.741 16.605 119.016 16.703C119.291 16.801 119.469 16.9037 119.548 17.011C119.632 17.1137 119.674 17.2513 119.674 17.424C119.674 17.704 119.562 17.9257 119.338 18.089C119.119 18.2477 118.806 18.327 118.4 18.327C117.938 18.327 117.555 18.2197 117.252 18.005C116.949 17.7903 116.753 17.4963 116.664 17.123L114.942 17.389C115.068 18.1497 115.423 18.74 116.006 19.16Z" fill="#614B12"></path><path d="M56.31 38.58L54 31.006L55.652 31.02L57.129 35.871L58.627 31.02H60.048L61.539 35.871L63.023 31.02H64.675L62.365 38.58H61.049L59.334 33.379L57.626 38.58H56.31Z" fill="#614B12"></path><path d="M66.0783 28.325V29.872H67.7653V28.325H66.0783Z" fill="#614B12"></path><path d="M66.0783 31.02V38.58H67.7653V31.02H66.0783Z" fill="#614B12"></path><path d="M74.2931 38.58C73.7938 38.6733 73.3038 38.713 72.8231 38.699C72.3471 38.6897 71.9201 38.6033 71.5421 38.44C71.1641 38.272 70.8771 38.0083 70.6811 37.649C70.5084 37.3223 70.4174 36.9887 70.4081 36.648C70.3988 36.3073 70.3941 35.9223 70.3941 35.493V32.343H69.0221V31.02H70.3941V28.92H72.0741V31.02H74.2931V32.343H72.0741V35.395C72.0741 35.6983 72.0764 35.9643 72.0811 36.193C72.0904 36.4217 72.1394 36.6083 72.2281 36.753C72.3961 37.033 72.6644 37.1893 73.0331 37.222C73.4018 37.2547 73.8218 37.236 74.2931 37.166V38.58Z" fill="#614B12"></path><path d="M81.1478 34.94V38.58H82.8558V34.359C82.8558 34.177 82.8394 33.9413 82.8068 33.652C82.7788 33.358 82.7134 33.0477 82.6107 32.721C82.5081 32.3943 82.3494 32.0863 82.1348 31.797C81.9201 31.5077 81.6307 31.2697 81.2668 31.083C80.9028 30.8963 80.4408 30.803 79.8808 30.803C79.1714 30.803 78.5741 30.9593 78.0888 31.272C77.829 31.4368 77.6027 31.6324 77.4098 31.8588V28.5H75.9048V38.58H77.6128V34.695C77.6128 34.233 77.6641 33.855 77.7668 33.561C77.8694 33.2623 78.0047 33.029 78.1728 32.861C78.3454 32.6883 78.5368 32.567 78.7467 32.497C78.9567 32.427 79.1691 32.392 79.3838 32.392C79.7851 32.392 80.1024 32.4783 80.3358 32.651C80.5737 32.8237 80.7511 33.0453 80.8678 33.316C80.9891 33.582 81.0661 33.8597 81.0988 34.149C81.1314 34.4383 81.1478 34.702 81.1478 34.94Z" fill="#614B12"></path><path fill-rule="evenodd" clip-rule="evenodd" d="M90.5162 38.79C89.8208 38.79 89.2142 38.615 88.6962 38.265C88.1782 37.915 87.7768 37.439 87.4922 36.837C87.2075 36.235 87.0652 35.556 87.0652 34.8C87.0652 34.0347 87.2075 33.3533 87.4922 32.756C87.7815 32.154 88.1898 31.6803 88.7172 31.335C89.2445 30.985 89.8652 30.81 90.5792 30.81C91.2978 30.81 91.8998 30.985 92.3852 31.335C92.4112 31.3533 92.4368 31.372 92.4622 31.3911V28.5H94.1632V38.58H92.6722V38.0253C92.5774 38.1109 92.4771 38.1908 92.3712 38.265C91.8718 38.615 91.2535 38.79 90.5162 38.79ZM92.4762 36.095C92.6068 35.7217 92.6722 35.29 92.6722 34.8C92.6722 34.3053 92.6068 33.8737 92.4762 33.505C92.3502 33.1317 92.1518 32.8423 91.8812 32.637C91.6105 32.427 91.2605 32.322 90.8312 32.322C90.3785 32.322 90.0052 32.434 89.7112 32.658C89.4172 32.8773 89.2002 33.176 89.0602 33.554C88.9202 33.9273 88.8502 34.3427 88.8502 34.8C88.8502 35.262 88.9178 35.682 89.0532 36.06C89.1932 36.4333 89.4055 36.7297 89.6902 36.949C89.9748 37.1683 90.3365 37.278 90.7752 37.278C91.2278 37.278 91.5918 37.1753 91.8672 36.97C92.1472 36.76 92.3502 36.4683 92.4762 36.095Z" fill="#614B12"></path><path fill-rule="evenodd" clip-rule="evenodd" d="M97.5468 38.293C98.1254 38.6243 98.7974 38.79 99.5628 38.79C100.291 38.79 100.956 38.601 101.558 38.223C102.164 37.845 102.612 37.3153 102.902 36.634L101.236 36.13C101.072 36.48 100.839 36.7483 100.536 36.935C100.237 37.117 99.8801 37.208 99.4648 37.208C98.8208 37.208 98.3308 36.998 97.9948 36.578C97.7309 36.2482 97.5706 35.8118 97.514 35.269H102.986C103.051 34.3637 102.951 33.5773 102.685 32.91C102.419 32.2427 102.01 31.727 101.46 31.363C100.914 30.9943 100.249 30.81 99.4648 30.81C98.7228 30.81 98.0694 30.978 97.5048 31.314C96.9401 31.65 96.4991 32.1237 96.1818 32.735C95.8644 33.3417 95.7058 34.058 95.7058 34.884C95.7058 35.6493 95.8668 36.326 96.1888 36.914C96.5154 37.502 96.9681 37.9617 97.5468 38.293ZM101.273 33.995C101.213 33.5028 101.081 33.1225 100.879 32.854C100.594 32.476 100.146 32.287 99.5348 32.287C98.8441 32.287 98.3308 32.5017 97.9948 32.931C97.7789 33.2038 97.6324 33.5585 97.5552 33.995H101.273Z" fill="#614B12"></path><path d="M104.688 38.58V28.29H106.375V38.58H104.688Z" fill="#614B12"></path><path d="M108.611 28.325V29.872H110.298V28.325H108.611Z" fill="#614B12"></path><path d="M108.611 31.02V38.58H110.298V31.02H108.611Z" fill="#614B12"></path><path d="M114.439 38.58L111.695 31.02H113.382L115.286 36.501L117.183 31.02H118.877L116.133 38.58H114.439Z" fill="#614B12"></path><path fill-rule="evenodd" clip-rule="evenodd" d="M121.281 38.293C121.86 38.6243 122.532 38.79 123.297 38.79C124.025 38.79 124.69 38.601 125.292 38.223C125.899 37.845 126.347 37.3153 126.636 36.634L124.97 36.13C124.807 36.48 124.573 36.7483 124.27 36.935C123.971 37.117 123.614 37.208 123.199 37.208C122.555 37.208 122.065 36.998 121.729 36.578C121.465 36.2482 121.305 35.8118 121.248 35.269H126.72C126.785 34.3637 126.685 33.5773 126.419 32.91C126.153 32.2427 125.745 31.727 125.194 31.363C124.648 30.9943 123.983 30.81 123.199 30.81C122.457 30.81 121.804 30.978 121.239 31.314C120.674 31.65 120.233 32.1237 119.916 32.735C119.599 33.3417 119.44 34.058 119.44 34.884C119.44 35.6493 119.601 36.326 119.923 36.914C120.25 37.502 120.702 37.9617 121.281 38.293ZM125.008 33.995C124.947 33.5028 124.815 33.1225 124.613 32.854C124.328 32.476 123.88 32.287 123.269 32.287C122.578 32.287 122.065 32.5017 121.729 32.931C121.513 33.2038 121.367 33.5585 121.29 33.995H125.008Z" fill="#614B12"></path><path d="M128.282 38.58V31.02H129.773V32.2275C129.83 32.126 129.893 32.0291 129.962 31.937C130.121 31.727 130.31 31.5543 130.529 31.419C130.716 31.293 130.921 31.195 131.145 31.125C131.374 31.0503 131.607 31.006 131.845 30.992C132.083 30.9733 132.314 30.9827 132.538 31.02V32.595C132.314 32.5297 132.055 32.5087 131.761 32.532C131.472 32.5553 131.21 32.637 130.977 32.777C130.744 32.903 130.552 33.064 130.403 33.26C130.258 33.456 130.151 33.68 130.081 33.932C130.011 34.1793 129.976 34.4477 129.976 34.737V38.58H128.282Z" fill="#614B12"></path><path d="M135.879 38.5273L134.635 41.94H136.217L140.431 31.02H138.744L136.69 36.4301L134.579 31.02H132.822L135.879 38.5273Z" fill="#614B12"></path><path fill-rule="evenodd" clip-rule="evenodd" d="M43.6836 24.4942C43.0213 23.3314 42.2675 22.2233 41.4294 21.1801C41.0376 20.6954 40.5442 20.3026 39.9841 20.0293C39.4239 19.7561 38.8107 19.609 38.1875 19.5986C37.4375 19.5864 36.6983 19.5793 36.1428 19.5793H36.1372C36.0197 18.9881 35.7137 18.4509 35.2651 18.0483C34.8165 17.6457 34.2495 17.3993 33.6491 17.3462C32.8405 17.275 29.6694 17.2234 28.1506 17.2234C26.6319 17.2234 23.4631 17.275 22.6522 17.3462C22.0002 17.4038 21.3893 17.689 20.9265 18.1518C20.4637 18.6146 20.1785 19.2255 20.1209 19.8775C20.0516 20.6861 20 22.974 20 24.4923C20 26.0106 20.0516 28.2981 20.1233 29.1072C20.1721 29.6587 20.384 30.1832 20.7321 30.6138C21.0801 31.0444 21.5485 31.3616 22.0775 31.525C22.1861 30.6776 22.6071 29.9013 23.258 29.348C23.9089 28.7947 24.7429 28.5042 25.5968 28.5336C26.4506 28.5629 27.2627 28.9098 27.8741 29.5065C28.4856 30.1031 28.8523 30.9065 28.9025 31.7593C29.9197 31.7519 31.2402 31.7308 32.2602 31.7012C33.0734 31.7265 34.0845 31.7453 34.9723 31.7551C35.0249 30.9004 35.3953 30.0962 36.0107 29.5008C36.6261 28.9053 37.4421 28.5616 38.2981 28.5372C39.1541 28.5128 39.9882 28.8095 40.6365 29.369C41.2849 29.9285 41.7004 30.7102 41.8016 31.5606C42.3588 31.4165 42.8578 31.1034 43.2299 30.6642C43.602 30.2251 43.8289 29.6815 43.8795 29.1081C43.9414 28.4106 43.9883 27.0503 44 25.7148C44.0039 25.2872 43.8947 24.8661 43.6836 24.4942ZM41.4013 25.2123H36.3022C36.3022 25.0827 36.3031 24.9557 36.3039 24.8322C36.3047 24.7155 36.3055 24.6019 36.3055 24.4923C36.3055 23.4461 36.2806 22.0342 36.2422 20.9931C36.7761 20.9931 37.4698 21.0006 38.1664 21.0118C38.5826 21.0189 38.9922 21.1173 39.3662 21.3001C39.7402 21.4829 40.0694 21.7457 40.3306 22.0698C40.9004 22.7778 41.4283 23.5184 41.9117 24.2879C41.9693 24.3792 42.0013 24.4842 42.0044 24.592C42.0075 24.6998 41.9817 24.8065 41.9295 24.9009C41.8774 24.9953 41.8009 25.074 41.7079 25.1288C41.615 25.1836 41.5091 25.2124 41.4013 25.2123Z" fill="#614B12"></path><path d="M27.6378 31.3081C27.9986 32.4985 27.326 33.7561 26.1355 34.1168C24.9451 34.4776 23.6875 33.805 23.3267 32.6146C22.966 31.4241 23.6385 30.1666 24.829 29.8058C26.0195 29.445 27.277 30.1176 27.6378 31.3081Z" fill="#614B12"></path><path d="M40.648 31.9642C40.648 33.2081 39.6396 34.2165 38.3956 34.2165C37.1517 34.2165 36.1433 33.2081 36.1433 31.9642C36.1433 30.7203 37.1517 29.7118 38.3956 29.7118C39.6396 29.7118 40.648 30.7203 40.648 31.9642Z" fill="#614B12"></path></svg> 